<svg viewBox="0 0 800 800" xmlns="http://www.w3.org/2000/svg"><path d="M300.0839275595777,254.00548236915196 L300.10553857868194,229.31256697903214 M-3.0859715642442325,446.62451011072244 L-3.131662531177767,421.8886023685863 M300.0839275595777,254.00548236915196 L-3.0859715642442325,446.62451011072244 M300.10553857868194,229.31256697903214 L-3.131662531177767,421.8886023685863 M663.2003652255822,506.20358824994685 L697.1364376773685,492.56619419636576 M697.1364376773685,492.56619419636576 L727.2929776434573,476.2552643114738 M727.2929776434573,476.2552643114738 L753.0453661420856,457.61275707111787 M753.0453661420856,457.61275707111787 L773.8622217208676,437.0288109707523 M773.8622217208676,437.0288109707523 L789.3165033004242,414.9332560534959 M789.3165033004242,414.9332560534959 L799.0937539991546,391.786506832108 M799.0937539991546,391.786506832108 L802.9983961744231,368.06962338054217 M802.9983961744231,368.06962338054217 L800.9570128283202,344.2743566771255 M800.9570128283202,344.2743566771255 L793.0193862985814,320.892783657141 M793.0193862985814,320.892783657141 L779.3568785472431,298.4072447802761 M779.3568785472431,298.4072447802761 L760.258147256963,277.28039757236104 M760.258147256963,277.28039757236104 L736.122816147044,257.9459698583495 M736.122816147044,257.9459698583495 L707.452848638783,240.800015062378 M707.452848638783,240.800015062378 L674.8419416281533,226.1930308111656 M674.8419416281533,226.1930308111656 L638.9631007583478,214.42317113751997 M638.9631007583478,214.42317113751997 L600.5551137805271,205.73027138214843 M600.5551137805271,205.73027138214843 L560.4073917633251,200.2912865446836 M560.4073917633251,200.2912865446836 L519.3441026965362,198.21686760186483 M519.3441026965362,198.21686760186483 L478.2077202478107,199.5491949292339 M478.2077202478107,199.5491949292339 L437.8421631879461,204.2611863990153 M437.8421631879461,204.2611863990153 L399.07598866030025,212.25698009430258 M399.07598866030025,212.25698009430258 L362.7057168300821,223.3738477907425 M362.7057168300821,223.3738477907425 L329.47989221934165,237.3853062625854 M329.47989221934165,237.3853062625854 L300.0839275595777,254.00548236915196 M663.2003652255822,506.20358824994685 L663.3028607106916,481.45444252802736 M300.10553857868194,229.31256697903214 L329.50800520288715,212.69611436467463 M329.50800520288715,212.69611436467463 L362.7411772436758,198.68779665633497 M362.7411772436758,198.68779665633497 L399.1194909048411,187.57342199678317 M399.1194909048411,187.57342199678317 L437.8942370875766,179.57942202554943 M437.8942370875766,179.57942202554943 L478.2687207930202,174.8684878522321 M478.2687207930202,174.8684878522321 L519.4142031799767,173.53645951023125 M519.4142031799767,173.53645951023125 L560.4865804468366,175.61041294227925 M560.4865804468366,175.61041294227925 L600.6431941113956,181.04817740547747 M600.6431941113956,181.04817740547747 L639.0596951497171,189.739127178778 M639.0596951497171,189.739127178778 L674.9464987302628,201.50634761174788 M674.9464987302628,201.50634761174788 L707.5646540015888,216.11005797194503 M707.5646540015888,216.11005797194503 L736.2410061580699,233.25217198677774 M736.2410061580699,233.25217198677774 L760.381726041759,252.58227150723758 M760.381726041759,252.58227150723758 L779.4847376399517,273.70439268527525 M779.4847376399517,273.70439268527525 L793.1503267319191,296.184905512013 M793.1503267319191,296.184905512013 L801.089769251889,319.5612564797458 M801.089769251889,319.5612564797458 L803.1316625311779,343.3512132193013 M803.1316625311779,343.3512132193013 L799.2262103347907,367.0628086983309 M799.2262103347907,367.0628086983309 L789.4468431284005,390.20440139747996 M789.4468431284005,390.20440139747996 L773.9891793525659,412.2950379645761 M773.9891793525659,412.2950379645761 L753.1677434673743,432.8744056989354 M753.1677434673743,432.8744056989354 L727.4096696628955,451.5127693164098 M727.4096696628955,451.5127693164098 L697.2464563106039,467.82007608895486 M697.2464563106039,467.82007608895486 L663.3028607106916,481.45444252802736 M307.7813855605859,626.4635404897688 L307.8048580098749,601.6877603657299 M-3.0859715642442325,446.62451011072244 L307.7813855605859,626.4635404897688 M-3.131662531177767,421.8886023685863 L307.8048580098749,601.6877603657299 M307.7813855605859,626.4635404897688 L663.2003652255822,506.20358824994685 M515.0110010953068,227.66945768870738 L509.23763194913727,228.0727025440457 M509.23763194913727,228.0727025440457 L503.8041173617245,229.25901911735696 M503.8041173617245,229.25901911735696 L499.0260296248688,231.15957514731238 M499.0260296248688,231.15957514731238 L495.1809514219707,233.6640450606255 M495.1809514219707,233.6640450606255 L492.49238235966516,236.62702936472982 M492.49238235966516,236.62702936472982 L491.1167337985121,239.87642597789124 M491.1167337985121,239.87642597789124 L491.13416271583264,243.22346932067637 M491.13416271583264,243.22346932067637 L492.5438910256378,246.473643783991 M492.5438910256378,246.473643783991 L495.2642315427613,249.4379875818519 M495.2642315427613,249.4379875818519 L499.1372146057587,251.9441097075292 M499.1372146057587,251.9441097075292 L503.9377760638466,253.8462307086285 M503.9377760638466,253.8462307086285 L509.386865872307,255.03365606240942 M509.386865872307,255.03365606240942 L515.1675844117511,255.4372992246678 M515.1675844117511,255.4372992246678 L520.9437597354893,255.03365533059915 M520.9437597354893,255.03365533059915 L526.3794531341186,253.84622265905975 M526.3794531341186,253.84622265905975 L531.1585607956412,251.94411190271555 M531.1585607956412,251.94411190271555 L535.003298606613,249.43797660691263 M535.003298606613,249.43797660691263 L537.6901983549872,246.47363573656287 M537.6901983549872,246.47363573656287 L539.0632789587286,243.22346493168482 M539.0632789587286,243.22346493168482 L539.0429575317002,239.87642232083988 M539.0429575317002,239.87642232083988 L537.6306687068953,236.627019857511 M537.6306687068953,236.627019857511 L534.9086730577823,233.66405822305975 M534.9086730577823,233.66405822305975 L531.0353505061925,231.1595883085571 M531.0353505061925,231.1595883085571 L526.235823967446,229.25902350413767 M526.235823967446,229.25902350413767 L520.7889279700529,228.07269084646467 M520.7889279700529,228.07269084646467 L515.0110010953068,227.66945768870738 M279.8954622880059,363.3010277153784 L280.6031480337097,366.6384827521467 M280.6031480337097,366.6384827521467 L282.675954674627,369.78233973143415 M282.675954674627,369.78233973143415 L285.9936057178248,372.5497940246911 M285.9936057178248,372.5497940246911 L290.3633585335589,374.7798878495139 M290.3633585335589,374.7798878495139 L295.5312424165565,376.3428677371214 M295.5312424165565,376.3428677371214 L301.19677736062334,377.1477821002388 M301.19677736062334,377.1477821002388 L307.0304924574411,377.1477769549783 M307.0304924574411,377.1477769549783 L312.6930851592024,376.34286626708956 M312.6930851592024,376.34286626708956 L317.85524950376805,374.77989152438676 M317.85524950376805,374.77989152438676 L322.2168597377454,372.54979328977544 M322.2168597377454,372.54979328977544 L325.5243725219549,369.7823404662766 M325.5243725219549,369.7823404662766 L327.5856860810743,366.6384798131098 M327.5856860810743,366.6384798131098 L328.28117842523545,363.3010255113655 M328.28117842523545,363.3010255113655 L327.5706611729835,359.96397728712253 M327.5706611729835,359.96397728712253 L325.4956797331256,356.82123052833936 M325.4956797331256,356.82123052833936 L322.1770110795311,354.0553368253723 M322.1770110795311,354.0553368253723 L317.80761164355556,351.8269061251446 M317.80761164355556,351.8269061251446 L312.6413699078445,350.26531015604917 M312.6413699078445,350.26531015604917 L306.9784125249172,349.4611758328496 M306.9784125249172,349.4611758328496 L301.14761285118954,349.4611743642397 M301.14761285118954,349.4611743642397 L295.4875935888492,350.2653072187443 M295.4875935888492,350.2653072187443 L290.3270650725629,351.8269075938797 M290.3270650725629,351.8269075938797 L285.9658148751051,354.0553382942253 M285.9658148751051,354.0553382942253 L282.65725582840736,356.8212290593402 M282.65725582840736,356.8212290593402 L280.59376595710955,359.96397949087066 M280.59376595710955,359.96397949087066 L279.8954622880059,363.3010277153784 M265.63874213611336,408.943708966223 L270.23609626871917,411.0204567137602 M270.23609626871917,411.0204567137602 L275.5609126684595,412.40257170616513 M275.5609126684595,412.40257170616513 L281.3035628630554,413.00962475308114 M281.3035628630554,413.00962475308114 L287.1300734564418,412.8062850154034 M287.1300734564418,412.8062850154034 L292.7015865217736,411.8043836486687 M292.7015865217736,411.8043836486687 L297.69409182880986,410.0622352882828 M297.69409182880986,410.0622352882828 L301.81733599759,407.68120912483477 M301.81733599759,407.68120912483477 L304.8316852028355,404.7998288414865 M304.8316852028355,404.7998288414865 L306.5620865615372,401.5856691101881 M306.5620865615372,401.5856691101881 L306.90815976187906,398.22561784749814 M306.90815976187906,398.22561784749814 L305.8500504968573,394.91496055871323 M305.8500504968573,394.91496055871323 L303.4494799676527,391.84605182937014 M303.4494799676527,391.84605182937014 L299.8461372189403,389.1971318965911 M299.8461372189403,389.1971318965911 L295.2494764932922,387.1220167067661 M295.2494764932922,387.1220167067661 L289.9265974577418,385.7411555498014 M289.9265974577418,385.7411555498014 L284.186668978379,385.13469757377965 M284.186668978379,385.13469757377965 L278.3630471283829,385.33783498243594 M278.3630471283829,385.33783498243594 L272.7939214078258,386.33878501312563 M272.7939214078258,386.33878501312563 L267.80276833166164,388.07944817234835 M267.80276833166164,388.07944817234835 L263.67952173997577,390.4587957592616 M263.67952173997577,390.4587957592616 L260.6638160131653,393.33868863448527 M260.6638160131653,393.33868863448527 L258.93102455711295,396.55189261777645 M258.93102455711295,396.55189261777645 L258.5820620294793,399.9117415507496 M258.5820620294793,399.9117415507496 L259.6374512976872,403.222994231939 M259.6374512976872,403.222994231939 L262.0360880896892,406.2931619911478 M262.0360880896892,406.2931619911478 L265.63874213611336,408.943708966223 M393.062825604199,434.2645231512932 L417.82689089072903,446.1133761227299 M417.82689089072903,446.1133761227299 L445.9412997815633,455.14194061442186 M445.9412997815633,455.14194061442186 L476.4455626628503,461.03989424397275 M476.4455626628503,461.03989424397275 L508.2962296528565,463.6043556727484 M508.2962296528565,463.6043556727484 L540.4030438679839,462.7470650224243 M540.4030438679839,462.7470650224243 L571.6668067928474,458.4975489423664 M571.6668067928474,458.4975489423664 L601.0176738532762,451.0020000665732 M601.0176738532762,451.0020000665732 L627.4522187712905,440.5181674827222 M627.4522187712905,440.5181674827222 L650.0681693842815,427.40620639167844 M650.0681693842815,427.40620639167844 L668.0953855428866,412.11600170020347 M668.0953855428866,412.11600170020347 L680.9221129467468,395.1713719317782 M680.9221129467468,395.1713719317782 L688.1154985316656,377.15182407017164 M688.1154985316656,377.15182407017164 L689.435842938251,358.67247062502565 M689.435842938251,358.67247062502565 L684.8439683345373,340.36290377317414 M684.8439683345373,340.36290377317414 L674.5018439176538,322.8457027063236 M674.5018439176538,322.8457027063236 L658.7662686652641,306.71536815479254 M658.7662686652641,306.71536815479254 L638.1761077017885,292.5183599684593 M638.1761077017885,292.5183599684593 L613.4335996842059,280.7348197734695 M613.4335996842059,280.7348197734695 L585.3801878276705,271.7627592734759 M585.3801878276705,271.7627592734759 L554.9681423346296,265.9048585066323 M554.9681423346296,265.9048585066323 L523.2284657941536,263.35858342348683 M523.2284657941536,263.35858342348683 L491.23642114945346,264.2097353604904 M491.23642114945346,264.2097353604904 L460.07569399447993,268.42963148120594 M460.07569399447993,268.42963148120594 L430.8022163509452,275.8760693994479 M430.8022163509452,275.8760693994479 L404.4089686505978,286.29793628465075 M404.4089686505978,286.29793628465075 L381.79264313849774,299.3434443165487 M381.79264313849774,299.3434443165487 L363.7234306677817,314.57168347994826 M363.7234306677817,314.57168347994826 L350.8187599783096,331.4672054539826 M350.8187599783096,331.4672054539826 L343.52200479690873,349.4571320157009 M343.52200479690873,349.4571320157009 L342.0868220337892,367.93036112994514 M342.0868220337892,367.93036112994514 L346.5679115925815,386.2581131084968 M346.5679115925815,386.2581131084968 L356.81827035395577,403.815355094943 M356.81827035395577,403.815355094943 L372.4934855850155,420.00218466089405 M372.4934855850155,420.00218466089405 L393.062825604199,434.2645231512932 M751.6561479069691,363.3010350620879 L750.9202153787146,359.96397214504367 M750.9202153787146,359.96397214504367 L748.8212702314553,356.8212290593402 M748.8212702314553,356.8212290593402 L745.4815238278738,354.05534710734264 M745.4815238278738,354.05534710734264 L741.0951423352356,351.82691640628997 M741.0951423352356,351.82691640628997 L735.9170383475306,350.26530721874434 M735.9170383475306,350.26530721874434 L730.2479428124244,349.4611787700695 M730.2479428124244,349.4611787700695 L724.4171354403071,349.46117289562983 M724.4171354403071,349.46117289562983 L718.7632467431588,350.2653072187443 M718.7632467431588,350.2653072187443 L713.6146236293123,351.8268987814694 M713.6146236293123,351.8268987814694 L709.270335207058,354.055341231931 M709.270335207058,354.055341231931 L705.9828692694982,356.8212290593402 M705.9828692694982,356.8212290593402 L703.943326589582,359.9639780217052 M703.943326589582,359.9639780217052 L703.270448327707,363.3010350620879 M703.270448327707,363.3010350620879 L704.0035623681707,366.6384754045545 M704.0035623681707,366.6384754045545 L706.1003221753685,369.782341201119 M706.1003221753685,369.782341201119 L709.4390732284004,372.5498013738469 M709.4390732284004,372.5498013738469 L713.8258207752424,374.77989519925967 M713.8258207752424,374.77989519925967 L719.0056091493079,376.342871412201 M719.0056091493079,376.342871412201 L724.6772856322668,377.1477784250528 M724.6772856322668,377.1477784250528 L730.5109892644256,377.1477784250528 M730.5109892644256,377.1477784250528 L736.1674544457337,376.342871412201 M736.1674544457337,376.342871412201 L741.3177256505538,374.7798834396665 M741.3177256505538,374.7798834396665 L745.6623284145317,372.5497896151976 M745.6623284145317,372.5497896151976 L748.9487591429205,369.782341201119 M748.9487591429205,369.782341201119 L750.986085236286,366.63848716070214 M750.986085236286,366.63848716070214 L751.6561479069691,363.3010350620879 M437.26562845418266,507.88742054059213 L441.87758526281925,509.9715659551086 M441.87758526281925,509.9715659551086 L447.2161408752994,511.35859825658014 M447.2161408752994,511.35859825658014 L452.9708974209799,511.9678192035392 M452.9708974209799,511.9678192035392 L458.80714172453384,511.763751391873 M458.80714172453384,511.763751391873 L464.38548000209096,510.758286043446 M464.38548000209096,510.758286043446 L469.381479145728,509.0099305369047 M469.381479145728,509.0099305369047 L473.5046954099097,506.6204227822497 M473.5046954099097,506.6204227822497 L476.51549703703824,503.72878016189566 M476.51549703703824,503.72878016189566 L478.2390254223302,500.50316709031034 M478.2390254223302,500.50316709031034 L478.57532641362263,497.13115242118255 M478.57532641362263,497.13115242118255 L477.50508390494474,493.8086993360851 M477.50508390494474,493.8086993360851 L475.0907601226014,490.72886797402134 M475.0907601226014,490.72886797402134 L471.4728136578748,488.07051547696483 M471.4728136578748,488.07051547696483 L466.8615581136495,485.9880115289179 M466.8615581136495,485.9880115289179 L461.5249397895865,484.602233516863 M461.5249397895865,484.602233516863 L455.772927026003,483.9936168925023 M455.772927026003,483.9936168925023 L449.93957087839215,484.19747538667133 M449.93957087839215,484.19747538667133 L444.36363704291205,485.2019909542375 M444.36363704291205,485.2019909542375 L439.3689884190517,486.9488522084112 M439.3689884190517,486.9488522084112 L435.24576452269673,489.33667241119963 M435.24576452269673,489.33667241119963 L432.23359885994944,492.2268207798586 M432.23359885994944,492.2268207798586 L430.5076573615985,495.45146635247914 M430.5076573615985,495.45146635247914 L430.1684663746495,498.8232835163229 M430.1684663746495,498.8232835163229 L431.2359705141296,502.1463291106931 M431.2359705141296,502.1463291106931 L433.6483684334106,505.2274324811469 M433.6483684334106,505.2274324811469 L437.26562845418266,507.88742054059213 M516.5443616712829,499.59809772888303 L522.345947388476,499.1908949199491 M522.345947388476,499.1908949199491 L527.8055543199547,497.99298715353825 M527.8055543199547,497.99298715353825 L532.6056582208819,496.0740785326881 M532.6056582208819,496.0740785326881 L536.467240519749,493.54583891724366 M536.467240519749,493.54583891724366 L539.1659039120067,490.5553334705489 M539.1659039120067,490.5553334705489 L540.544936065953,487.2764780127564 M540.544936065953,487.2764780127564 L540.5244366121929,483.8999021058848 M540.5244366121929,483.8999021058848 L539.1058362222635,480.62183627234396 M539.1058362222635,480.62183627234396 L536.3718170791905,477.63271872691263 M536.3718170791905,477.63271872691263 L532.4813799242778,475.1061532395491 M532.4813799242778,475.1061532395491 L527.6606590435205,473.18882145858504 M527.6606590435205,473.18882145858504 L522.1897442560262,471.99202609678986 M522.1897442560262,471.99202609678986 L516.3864132903027,471.58523277586687 M516.3864132903027,471.58523277586687 L510.5876393502806,471.99203199717704 M510.5876393502806,471.99203199717704 L505.13022151183793,473.1888273592259 M505.13022151183793,473.1888273592259 L500.33114385476847,475.1061473385017 M500.33114385476847,475.1061473385017 L496.46919004699373,477.63271872691263 M496.46919004699373,477.63271872691263 L493.7688809022143,480.62183627234396 M493.7688809022143,480.62183627234396 L492.38724914666454,483.8999021058848 M492.38724914666454,483.8999021058848 L492.40482934353133,487.2764898200121 M492.40482934353133,487.2764898200121 L493.8208492262013,490.55533937487195 M493.8208492262013,490.55533937487195 L496.55322801814214,493.54583891724366 M496.55322801814214,493.54583891724366 L500.44332272972883,496.0740785326881 M500.44332272972883,496.0740785326881 L505.2650570138279,497.99298124763766 M505.2650570138279,497.99298124763766 L510.7381632508026,499.1908949199491 M510.7381632508026,499.1908949199491 L516.5443616712829,499.59809772888303 M307.8048580098749,601.6877603657299 L663.3028607106916,481.45444252802736 M515.0801796541165,202.98244349752284 L520.8593860851686,203.38558625975264 M520.8593860851686,203.38558625975264 L526.3074893898686,204.57165297667194 M526.3074893898686,204.57165297667194 L531.1080809114615,206.47179175400808 M531.1080809114615,206.47179175400808 L534.9822642696383,208.97570031523355 M534.9822642696383,208.97570031523355 L537.7048665116015,211.93799789451134 M537.7048665116015,211.93799789451134 L539.1174723903083,215.1866721865273 M539.1174723903083,215.1866721865273 L539.1378028173006,218.5329648336651 M539.1378028173006,218.5329648336651 L537.7644225256021,221.78240746629336 M537.7644225256021,221.78240746629336 L535.0769317216768,224.74608427564849 M535.0769317216768,224.74608427564849 L531.2313457680825,227.2516582107722 M531.2313457680825,227.2516582107722 L526.451182166557,229.15334293813436 M526.451182166557,229.15334293813436 L521.014286425851,230.3405096667658 M521.014286425851,230.3405096667658 L515.2368323190243,230.74406316144749 M515.2368323190243,230.74406316144749 L509.4548329818575,230.3405103984122 M509.4548329818575,230.3405103984122 L504.0045348978732,229.1533509859002 M504.0045348978732,229.1533509859002 L499.2029079966351,227.25165601607756 M499.2029079966351,227.25165601607756 L495.3290642753443,224.7460952481292 M495.3290642753443,224.7460952481292 L492.6081178924835,221.78241551191866 M492.6081178924835,221.78241551191866 L491.19807366128464,218.53296922167345 M491.19807366128464,218.53296922167345 L491.18063702535824,215.18667584275906 M491.18063702535824,215.18667584275906 L492.5565864124866,211.9380073995996 M492.5565864124866,211.9380073995996 L495.2457472674406,208.97568715574954 M495.2457472674406,208.97568715574954 L499.09167376972596,206.47177859571346 M499.09167376972596,206.47177859571346 L503.870816997373,204.57164859087464 M503.870816997373,204.57164859087464 L509.3055329674827,203.38559795471141 M509.3055329674827,203.38559795471141 L515.0801796541165,202.98244349752284 M279.9126359116796,338.5836813139752 L280.61109349962175,335.2473776132685 M280.61109349962175,335.2473776132685 L282.6750402441746,332.10532843737445 M282.6750402441746,332.10532843737445 L285.9843324822649,329.34005490281487 M285.9843324822649,329.34005490281487 L290.3465495377822,327.1121215389749 M290.3465495377822,327.1121215389749 L295.50822240555107,325.550869702182 M295.50822240555107,325.550869702182 L301.1694970659005,324.7469163321347 M301.1694970659005,324.7469163321347 L307.00159032464103,324.74691780041684 M307.00159032464103,324.74691780041684 L312.6658044099634,325.5508726388313 M312.6658044099634,325.5508726388313 L317.8331930319438,327.11212007056776 M317.8331930319438,327.11212007056776 L322.2035629424855,329.34005343428987 M322.2035629424855,329.34005343428987 L325.5229692752937,332.1053299060459 M325.5229692752937,332.1053299060459 L327.5984126889714,335.24737541001207 M327.5984126889714,335.24737541001207 L328.3090892788473,338.5836791104541 M328.3090892788473,338.5836791104541 L327.6134442664122,341.9203888867548 M327.6134442664122,341.9203888867548 L325.5516748007658,345.06354828307616 M325.5516748007658,345.06354828307616 L322.24342928737235,347.8303838750677 M322.24342928737235,347.8303838750677 L317.8808520390313,350.05998477013515 M317.8808520390313,350.05998477013515 L312.71754261462297,351.62261097377524 M312.71754261462297,351.62261097377524 L307.0536933731854,352.42734217640884 M307.0536933731854,352.42734217640884 L301.2186833992737,352.427347320522 M301.2186833992737,352.427347320522 L295.55189060896606,351.62261244347934 M295.55189060896606,351.62261244347934 L290.38285910769764,350.05998109608174 M290.38285910769764,350.05998109608174 L286.0121356598686,347.8303846098194 M286.0121356598686,347.8303846098194 L282.6937473907687,345.0635475483977 M282.6937473907687,345.0635475483977 L280.62047974062,341.92039182513605 M280.62047974062,341.92039182513605 L279.9126359116796,338.5836813139752 M265.65276357657433,384.21618822252145 L262.04930878114317,381.5662316334906 M262.04930878114317,381.5662316334906 L259.65013859707403,378.4967477973065 M259.65013859707403,378.4967477973065 L258.59451421822337,375.18623282857993 M258.59451421822337,375.18623282857993 L258.943553477435,371.8271325243141 M258.943553477435,371.8271325243141 L260.6767289392374,368.61464457920573 M260.6767289392374,368.61464457920573 L263.69310353659046,365.73539353638205 M263.69310353659046,365.73539353638205 L267.81726494080783,363.35657627693297 M267.81726494080783,363.35657627693297 L272.809525604467,361.6163011188691 M272.809525604467,361.6163011188691 L278.37988737383927,360.6155742151212 M278.37988737383927,360.6155742151212 L284.20480198485296,360.41248208985076 M284.20480198485296,360.41248208985076 L289.94600491899297,361.0188048752531 M289.94600491899297,361.0188048752531 L295.27006613861585,362.39935822386735 M295.27006613861585,362.39935822386735 L299.8677481494996,364.47401087751786 M299.8677481494996,364.47401087751786 L303.4718919537897,367.12234042495305 M303.4718919537897,367.12234042495305 L305.87299673226846,370.1905652328641 M305.87299673226846,370.1905652328641 L306.9313423158996,373.5004848097025 M306.9313423158996,373.5004848097025 L306.58519366734885,376.85978744352195 M306.58519366734885,376.85978744352195 L304.8544093661886,380.0732311353762 M304.8544093661886,380.0732311353762 L301.839391892956,382.9539695848793 M301.839391892956,382.9539695848793 L297.71523291325855,385.3344654195086 M297.71523291325855,385.3344654195086 L292.721619419031,387.0762257777821 M292.721619419031,387.0762257777821 L287.14886924342636,388.07790401729716 M287.14886924342636,388.07790401729716 L281.3210646060422,388.28119847142574 M281.3210646060422,388.28119847142574 L275.5771387475576,387.67428061557376 M275.5771387475576,387.67428061557376 L270.2511393041211,386.2924734319543 M270.2511393041211,386.2924734319543 L265.65276357657433,384.21618822252145 M393.105166119322,409.5313652471304 L372.5312460590005,395.2722013443241 M372.5312460590005,395.2722013443241 L356.85253882500115,379.0889766977403 M356.85253882500115,379.0889766977403 L346.5998936515391,361.5356471969347 M346.5998936515391,361.5356471969347 L342.1177990667004,343.2119820322129 M342.1177990667004,343.2119820322129 L343.55328992883733,324.7428748858711 M343.55328992883733,324.7428748858711 L350.85165326314905,306.75696507136365 M350.85165326314905,306.75696507136365 L363.75917509266264,289.8652178422831 M363.75917509266264,289.8652178422831 L381.8323828602008,274.6403828782285 M381.8323828602008,274.6403828782285 L404.45371083831503,261.5977925796195 M404.45371083831503,261.5977925796195 L430.8527978147347,251.1782576058456 M430.8527978147347,251.1782576058456 L460.1327536215566,243.73348637280236 M460.1327536215566,243.73348637280236 L491.3003789463238,239.51453495913185 M491.3003789463238,239.51453495913185 L523.2995091604407,238.66357358652706 M523.2995091604407,238.66357358652706 L555.0462199357116,241.20927860140574 M555.0462199357116,241.20927860140574 L585.4650112646733,247.0658680791568 M585.4650112646733,247.0658680791568 L613.5246528984019,256.03592071780577 M613.5246528984019,256.03592071780577 L638.2726638517996,267.81682484586565 M638.2726638517996,267.81682484586565 L658.8674140153388,282.01065852720603 M658.8674140153388,282.01065852720603 L674.6065079946945,298.1373882281573 M674.6065079946945,298.1373882281573 L684.9509595076242,315.65067685752484 M684.9509595076242,315.65067685752484 L689.5438882882879,333.9561569178924 M689.5438882882879,333.9561569178924 L688.2232867615994,352.4313883891579 M688.2232867615994,352.4313883891579 L681.028338942988,370.4469194667961 M681.028338942988,370.4469194667961 L668.1987950576777,387.3877744299405 M668.1987950576777,387.3877744299405 L650.1676023207076,402.6745748455642 M650.1676023207076,402.6745748455642 L627.5466494913798,415.7836181213062 M627.5466494913798,415.7836181213062 L601.1062470444072,426.26511871728536 M601.1062470444072,426.26511871728536 L571.7488675309152,433.7590008469908 M571.7488675309152,433.7590008469908 L540.4781607392779,438.007572183649 M540.4781607392779,438.007572183649 L508.36421002154236,438.86467226041776 M508.36421002154236,438.86467226041776 L476.50645950899366,436.3007809224509 M476.50645950899366,436.3007809224509 L445.99540980700704,430.40413863268213 M445.99540980700704,430.40413863268213 L417.87474399081736,421.3775820730047 M417.87474399081736,421.3775820730047 L393.105166119322,409.5313652471304 M751.7780095122,338.5836886590458 L751.1078054618339,341.920396232708 M751.1078054618339,341.920396232708 L749.0700341036288,345.0635490177547 M749.0700341036288,345.0635490177547 L745.7828800067169,347.8303802013093 M745.7828800067169,347.8303802013093 L741.4373177760156,350.0599766872178 M741.4373177760156,350.0599766872178 L736.2859067754578,351.6226161177394 M736.2859067754578,351.6226161177394 L730.6281877763536,352.4273436461555 M730.6281877763536,352.4273436461555 L724.7931892696436,352.4273436461555 M724.7931892696436,352.4273436461555 L719.1202522154534,351.6226161177394 M719.1202522154534,351.6226161177394 L713.9393109365195,350.0599884441886 M713.9393109365195,350.0599884441886 L709.5515852127677,347.83039195733625 M709.5515852127677,347.83039195733625 L706.2120875691644,345.0635490177547 M706.2120875691644,345.0635490177547 L704.1148561186337,341.9203844791829 M704.1148561186337,341.9203844791829 L703.3815727066714,338.5836886590458 M703.3815727066714,338.5836886590458 L704.0545936010826,335.24737614443086 M704.0545936010826,335.24737614443086 L706.0945825252496,332.10532843737457 M706.0945825252496,332.10532843737457 L709.3827722963774,329.34005783986515 M709.3827722963774,329.34005783986515 L713.7280200447917,327.11211272853154 M713.7280200447917,327.11211272853154 L718.8777822279978,325.5508697021821 M718.8777822279978,325.5508697021821 L724.532923603221,324.74691486385257 M724.532923603221,324.74691486385257 L730.3650245620713,324.74692073698105 M730.3650245620713,324.74692073698105 L736.0353795211768,325.5508697021821 M736.0353795211768,325.5508697021821 L741.2146356677398,327.1121303494184 M741.2146356677398,327.1121303494184 L745.6019951713196,329.34006371396543 M745.6019951713196,329.34006371396543 L748.9424886085161,332.10532843737457 M748.9424886085161,332.10532843737457 L751.0419063622527,335.24737026908053 M751.0419063622527,335.24737026908053 L751.7780095122,338.5836886590458 M437.3178595567638,483.1379010969719 L433.69979228722434,480.47850342454245 M433.69979228722434,480.47850342454245 L431.28685485145877,477.3980839787091 M431.28685485145877,477.3980839787091 L430.21911020844686,474.07577609881037 M430.21911020844686,474.07577609881037 L430.558373577171,470.704707566849 M430.558373577171,470.704707566849 L432.284696029246,467.480778035101 M432.284696029246,467.480778035101 L435.2975289830448,464.5912715019216 M435.2975289830448,464.5912715019216 L439.421667676796,462.2039816294089 M439.421667676796,462.2039816294089 L444.4174254379543,460.45750837860413 M444.4174254379543,460.45750837860413 L449.99459834636946,459.45321593963723 M449.99459834636946,459.45321593963723 L455.8292515799609,459.24940272863734 M455.8292515799609,459.24940272863734 L461.5825441708074,459.85788416172653 M461.5825441708074,459.85788416172653 L466.92035078879053,461.2433543636319 M466.92035078879053,461.2433543636319 L471.5326341105658,463.32539577303584 M471.5326341105658,463.32539577303584 L475.1513881289769,465.98315788180116 M475.1513881289769,465.98315788180116 L477.5662522845714,469.06230532073374 M477.5662522845714,469.06230532073374 L478.6367365123248,472.3840206898222 M478.6367365123248,472.3840206898222 L478.30036442762184,475.75528672845553 M478.30036442762184,475.75528672845553 L476.576456162133,478.980183757564 M476.576456162133,478.980183757564 L473.56498785237613,481.8711845430039 M473.56498785237613,481.8711845430039 L469.4408567958926,484.26016196802135 M469.4408567958926,484.26016196802135 L464.4437479155562,486.008129471759 M464.4437479155562,486.008129471759 L458.8641694973245,487.0133716939162 M458.8641694973245,487.0133716939162 L453.0266268206534,487.21739422117895 M453.0266268206534,487.21739422117895 L447.2705892285529,486.60830846657626 M447.2705892285529,486.60830846657626 L441.9308444577598,485.2215839728096 M441.9308444577598,485.2215839728096 L437.3178595567638,483.1379010969719 M516.6142208401312,474.8504182951155 L510.8067303083624,474.4433058885488 M510.8067303083624,474.4433058885488 L505.33240511903614,473.2456581705879 M505.33240511903614,473.2456581705879 L500.5095959695168,471.3271815039819 M500.5095959695168,471.3271815039819 L496.61863297693765,468.7995032710665 M496.61863297693765,468.7995032710665 L493.88564294298953,465.8096678195561 M493.88564294298953,465.8096678195561 L492.469304315151,462.53154647063076 M492.469304315151,462.53154647063076 L492.4517162978259,459.15570875903444 M492.4517162978259,459.15570875903444 L493.8336515011664,455.8783711316081 M493.8336515011664,455.8783711316081 L496.5345576242114,452.88991767866816 M496.5345576242114,452.88991767866816 L500.3973671923711,450.3639076744822 M500.3973671923711,450.3639076744822 L505.1975096339048,448.4470137426013 M505.1975096339048,448.4470137426013 L510.65613944579627,447.2504843351598 M510.65613944579627,447.2504843351598 L516.4562021943655,446.8437755163097 M516.4562021943655,446.8437755163097 L522.2608240021185,447.2504784360838 M522.2608240021185,447.2504784360838 L527.7329567657065,448.4470078432716 M527.7329567657065,448.4470078432716 L532.554752052279,450.3639135742184 M532.554752052279,450.3639135742184 L536.446057638418,452.88991767866816 M536.446057638418,452.88991767866816 L539.1806887537318,455.8783711316081 M539.1806887537318,455.8783711316081 L540.5996090357716,459.15570875903444 M540.5996090357716,459.15570875903444 L540.6201176086063,462.53153466599747 M540.6201176086063,462.53153466599747 L539.2407831619983,465.80966191654414 M539.2407831619983,465.80966191654414 L536.541523529867,468.7995032710665 M536.541523529867,468.7995032710665 L532.6790856357057,471.3271815039819 M532.6790856357057,471.3271815039819 L527.8779164957737,473.2456640751771 M527.8779164957737,473.2456640751771 L522.4170966207158,474.4433058885488 M522.4170966207158,474.4433058885488 L516.6142208401312,474.8504182951155 M515.0110010953068,227.66945768870738 L515.0801796541165,202.98244349752284 M279.8954622880059,363.3010277153784 L279.9126359116796,338.5836813139752 M265.63874213611336,408.943708966223 L265.65276357657433,384.21618822252145 M393.062825604199,434.2645231512932 L393.105166119322,409.5313652471304 M751.6561479069691,363.3010350620879 L751.7780095122,338.5836886590458 M437.26562845418266,507.88742054059213 L437.3178595567638,483.1379010969719 M516.5443616712829,499.59809772888303 L516.6142208401312,474.8504182951155" stroke="black"  stroke-width="4"  fill="red"/>
<path d="M143.99382274491967,484.1722530158228 L143.94822344645536,397.4613348922513 M304.99849250475614,577.2351671654944 L305.07850177023977,490.4518487148088 M143.99382274491967,484.1722530158228 L304.99849250475614,577.2351671654944 M143.94822344645536,397.4613348922513 L305.07850177023977,490.4518487148088 M369.3279476363009,539.9726922103582 L369.45808723310824,453.21833383489974 M304.99849250475614,577.2351671654944 L369.3279476363009,539.9726922103582 M305.07850177023977,490.4518487148088 L369.45808723310824,453.21833383489974 M208.32339863483912,447.0339913021103 L208.3279299504889,360.3520333304878 M369.3279476363009,539.9726922103582 L208.32339863483912,447.0339913021103 M369.45808723310824,453.21833383489974 L208.3279299504889,360.3520333304878 M208.32339863483912,447.0339913021103 L143.99382274491967,484.1722530158228 M208.3279299504889,360.3520333304878 L143.94822344645536,397.4613348922513" stroke="black"  stroke-width="4"  fill="red"/>
<path d="M213.20726477268,416.96976287218183 L213.20488862669265,441.6880899639659 M138.2421851114063,460.2268400848774 L138.25646417331808,484.9547787903951 M213.20726477268,416.96976287218183 L138.2421851114063,460.2268400848774 M213.20488862669265,441.6880899639659 L138.25646417331808,484.9547787903951 M191.78866265004757,491.16597707918595 L191.79104514017547,515.9007812159552 M138.2421851114063,460.2268400848774 L191.78866265004757,491.16597707918595 M138.25646417331808,484.9547787903951 L191.79104514017547,515.9007812159552 M266.75374231749123,447.8608097270589 L266.7394695997145,472.5860022572245 M191.78866265004757,491.16597707918595 L266.75374231749123,447.8608097270589 M191.79104514017547,515.9007812159552 L266.7394695997145,472.5860022572245 M266.75374231749123,447.8608097270589 L213.20726477268,416.96976287218183 M266.7394695997145,472.5860022572245 L213.20488862669265,441.6880899639659" stroke="black"  stroke-width="4"  fill="red"/></svg>