<svg viewBox="0 0 800 800" xmlns="http://www.w3.org/2000/svg"><path d="M294.8156469682733,244.69107803145812 L294.8372541016696,220.0026024808746 M2.3845524203447894,443.4564143408877 L2.3412393543712824,418.7235794960931 M294.8156469682733,244.69107803145812 L2.3845524203447894,443.4564143408877 M294.8372541016696,220.0026024808746 L2.3412393543712824,418.7235794960931 M687.6743053849964,485.0992503424847 L718.5010674254574,469.0181590285711 M718.5010674254574,469.0181590285711 L744.9477293219412,450.53524125722083 M744.9477293219412,450.53524125722083 L766.4623326502865,430.04165362927205 M766.4623326502865,430.04165362927205 L782.5982233633669,407.9702171762173 M782.5982233633669,407.9702171762173 L793.0231009096057,384.78602177376024 M793.0231009096057,384.78602177376024 L797.5255382071031,360.9763867316911 M797.5255382071031,360.9763867316911 L796.0188226521394,337.04058311218114 M796.0188226521394,337.04058311218114 L788.5421993668784,313.47920780481934 M788.5421993668784,313.47920780481934 L775.259305810748,290.7837353688666 M775.259305810748,290.7837353688666 L756.4542675324868,269.42647271352405 M756.4542675324868,269.42647271352405 L732.5251012430112,249.85080238940847 M732.5251012430112,249.85080238940847 L703.9751982642993,232.4621945268054 M703.9751982642993,232.4621945268054 L671.4024108496395,217.62012437939762 M671.4024108496395,217.62012437939762 L635.4865771924241,205.6309039258332 M635.4865771924241,205.6309039258332 L596.975527638125,196.74155048018983 M596.975527638125,196.74155048018983 L556.6695944235034,191.13504836752315 M556.6695944235034,191.13504836752315 L515.4053456973671,188.92675021606595 M515.4053456973671,188.92675021606595 L474.03885339685473,190.16200350204156 M474.03885339685473,190.16200350204156 L433.4281265029747,194.81543711653813 M433.4281265029747,194.81543711653813 L394.41593491277706,202.79136041736945 M394.41593491277706,202.79136041736945 L357.8127548886009,213.9256292941575 M357.8127548886009,213.9256292941575 L324.38021793398366,227.98890004462567 M324.38021793398366,227.98890004462567 L294.8156469682733,244.69107803145812 M687.6743053849964,485.0992503424847 L687.7833910006244,460.35716187759476 M294.8372541016696,220.0026024808746 L324.4083643202649,203.30416636316795 M324.4083643202649,203.30416636316795 L357.8482944060497,189.24404800287678 M357.8482944060497,189.24404800287678 L394.4595677535168,178.11227607857015 M394.4595677535168,178.11227607857015 L433.4803854096907,170.13814205372353 M433.4803854096907,170.13814205372353 L474.1000932194796,165.48575260037555 M474.1000932194796,165.48575260037555 L515.4757364736193,164.25077651588035 M515.4757364736193,164.25077651588035 L556.7491180697601,166.4585791147878 M556.7491180697601,166.4585791147878 L597.0639782665655,172.0638232768605 M597.0639782665655,172.0638232768605 L635.5835651441613,180.95118270169013 M635.5835651441613,180.95118270169013 L671.5073702778524,192.9377147856568 M671.5073702778524,192.9377147856568 L704.08739819566,207.7764584532153 M704.08739819566,207.7764584532153 L732.643659987921,225.16117133154654 M732.643659987921,225.16117133154654 L756.5781701633366,244.73245966758603 M756.5781701633366,244.73245966758603 L775.3874244256431,266.08494501947706 M775.3874244256431,266.08494501947706 L788.6733158462166,288.7753448075822 M788.6733158462166,288.7753448075822 L796.1516534256083,312.33145828290225 M796.1516534256083,312.33145828290225 L797.6587606456287,336.2619209922183 M797.6587606456287,336.2619209922183 L793.1553807723957,360.0662478172245 M793.1553807723957,360.0662478172245 L782.7282427947003,383.24527879234364 M782.7282427947003,383.24527879234364 L766.5888181004659,405.31180268177764 M766.5888181004659,405.31180268177764 L745.0694787969456,425.800832420907 M745.0694787969456,425.800832420907 L718.6169764380123,444.2796423650632 M718.6169764380123,444.2796423650632 L687.7833910006244,460.35716187759476 M334.7793459558353,635.7492234841197 L334.8100188477986,610.973774195766 M2.3845524203447894,443.4564143408877 L334.7793459558353,635.7492234841197 M2.3412393543712824,418.7235794960931 L334.8100188477986,610.973774195766 M334.7793459558353,635.7492234841197 L687.6743053849964,485.0992503424847 M509.7040761518299,218.3597886251501 L503.93174506990636,218.76296097619235 M503.93174506990636,218.76296097619235 L498.4992074401554,219.94906424722055 M498.4992074401554,219.94906424722055 L493.72197881379793,221.84927855309564 M493.72197881379793,221.84927855309564 L489.87759196426794,224.35329815730748 M489.87759196426794,224.35329815730748 L487.18950631248856,227.31574971043239 M487.18950631248856,227.31574971043239 L485.8141050959189,230.56456207506238 M485.8141050959189,230.56456207506238 L485.83153087948244,233.91100361222317 M485.83153087948244,233.91100361222317 L487.24100571709175,237.1605936871473 M487.24100571709175,237.1605936871473 L489.960857111113,240.12440448958884 M489.960857111113,240.12440448958884 L493.8331438033881,242.6300760090935 M493.8331438033881,242.6300760090935 L498.6328421101541,244.53185500472725 M498.6328421101541,244.53185500472725 L504.08095216049423,245.71906685686415 M504.08095216049423,245.71906685686415 L509.8606313142558,246.1226374432098 M509.8606313142558,246.1226374432098 L515.6357680691912,245.71906612518544 M515.6357680691912,245.71906612518544 L521.0704841184037,244.53184695660588 M521.0704841184037,244.53184695660588 L525.8487324860433,242.6300782038852 M525.8487324860433,242.6300782038852 L529.6927790048502,240.12439351662294 M529.6927790048502,240.12439351662294 L532.3791956428445,237.160585641166 M532.3791956428445,237.160585641166 L533.7520293637267,233.91099922402074 M533.7520293637267,233.91099922402074 L533.7317115905349,230.56455841866864 M533.7317115905349,230.56455841866864 L532.319676698312,227.31574020492292 M532.319676698312,227.31574020492292 L529.5981704698976,224.3533113173751 M529.5981704698976,224.3533113173751 L525.7255443500709,221.849291711974 M525.7255443500709,221.849291711974 L520.9268807765656,219.94906863321256 M520.9268807765656,219.94906863321256 L515.4809641428407,218.7629492807145 M515.4809641428407,218.7629492807145 L509.7040761518299,218.3597886251501 M274.6308116263745,353.9669718024978 L275.3383701286523,357.30382675764 M275.3383701286523,357.30382675764 L277.41080407445736,360.4471184646503 M277.41080407445736,360.4471184646503 L280.7278585968298,363.2140751636461 M280.7278585968298,363.2140751636461 L285.09682572156663,365.4437680127811 M285.09682572156663,365.4437680127811 L290.2637804078769,367.00646687322796 M290.2637804078769,367.00646687322796 L295.92829667652035,367.8112365110039 M295.92829667652035,367.8112365110039 L301.76096285876,367.81123136666855 M301.76096285876,367.81123136666855 L307.4225374141195,367.0064654034605 M307.4225374141195,367.0064654034605 L312.5837735903832,365.4437716869932 M312.5837735903832,365.4437716869932 L316.9445995974171,363.21407442886266 M316.9445995974171,363.21407442886266 L320.2515176836821,360.44711919936054 M320.2515176836821,360.44711919936054 L322.31246061417005,357.30382381913154 M322.31246061417005,357.30382381913154 L323.007827907305,353.9669695988813 M323.007827907305,353.9669695988813 L322.2974384075902,350.6305213831187 M322.2974384075902,350.6305213831187 L320.2228300538783,347.4883396969927 M320.2228300538783,347.4883396969927 L316.9047581040776,344.7229433076892 M316.9047581040776,344.7229433076892 L312.5361442955608,342.49491328411597 M312.5361442955608,342.49491328411597 L307.3708314612755,340.93359809334953 M307.3708314612755,340.93359809334953 L301.70889229032053,340.12960835523864 M301.70889229032053,340.12960835523864 L295.8791410069716,340.1296068868928 M295.8791410069716,340.1296068868928 L290.22013942832314,340.9335951565727 M290.22013942832314,340.9335951565727 L285.0605387862134,342.4949147525869 M285.0605387862134,342.4949147525869 L280.70007275096356,344.72294477627804 M280.70007275096356,344.72294477627804 L277.3921085903306,347.4883382282577 M277.3921085903306,347.4883382282577 L275.32898973896977,350.6305235864706 M275.32898973896977,350.6305235864706 L274.6308116263745,353.9669718024978 M260.376654863567,399.60144640064243 L264.97318238196715,401.67782074444784 M264.97318238196715,401.67782074444784 L270.29704136821454,403.05968722959096 M270.29704136821454,403.05968722959096 L276.03865902189847,403.6666311270576 M276.03865902189847,403.6666311270576 L281.86412199609185,403.463327950304 M281.86412199609185,403.463327950304 L287.4346332913374,402.46160672759976 M287.4346332913374,402.46160672759976 L292.4262409351331,400.7197716092529 M292.4262409351331,400.7197716092529 L296.5487437357035,398.33917355945323 M296.5487437357035,398.33917355945323 L299.5625509544493,395.45831135450516 M299.5625509544493,395.45831135450516 L301.2926411832482,392.2447295360708 M301.2926411832482,392.2447295360708 L301.63865215888086,388.8852824178572 M301.63865215888086,388.8852824178572 L300.58073314419096,385.5752203924054 M300.58073314419096,385.5752203924054 L298.18059424275407,382.5068634594823 M298.18059424275407,382.5068634594823 L294.577899382853,379.8584198082301 M294.577899382853,379.8584198082301 L289.9820651467344,377.78367772859957 M289.9820651467344,377.78367772859957 L284.6601431763346,376.4030648534543 M284.6601431763346,376.4030648534543 L278.92124674851345,375.7967159198869 M278.92124674851345,375.7967159198869 L273.098671998308,375.99981680399816 M273.098671998308,375.99981680399816 L267.5305476185876,377.0005868617098 M267.5305476185876,377.0005868617098 L262.5402919625299,378.7409370459359 M262.5402919625299,378.7409370459359 L258.41778673948966,381.1198568210123 M258.41778673948966,381.1198568210123 L255.40262324308424,383.999231885275 M255.40262324308424,383.999231885275 L253.67014334667942,387.21185812754794 M253.67014334667942,387.21185812754794 L253.32124356326216,390.57110295242387 M253.32124356326216,390.57110295242387 L254.3764430701995,393.88176026322725 M254.3764430701995,393.88176026322725 L256.7746485821239,396.9513759996399 M256.7746485821239,396.9513759996399 L260.376654863567,399.60144640064243 M387.7778272061448,424.91770784861643 L412.5374398602337,436.7644303706894 M412.5374398602337,436.7644303706894 L440.646793719608,445.79137150697943 M440.646793719608,445.79137150697943 L471.14557186852437,451.6882646717252 M471.14557186852437,451.6882646717252 L502.9905120397923,454.25226500479545 M502.9905120397923,454.25226500479545 L535.0915533803569,453.3951284971825 M535.0915533803569,453.3951284971825 L566.349695013101,449.14637648929676 M566.349695013101,449.14637648929676 L595.6952847242197,441.6521753293857 M595.6952847242197,441.6521753293857 L622.1250766539457,431.17022776128357 M622.1250766539457,431.17022776128357 L644.7369608701548,418.0606242291725 M644.7369608701548,418.0606242291725 L662.7609356963467,402.77316874953556 M662.7609356963467,402.77316874953556 L675.5853568269077,385.8315856621515 M675.5853568269077,385.8315856621515 L682.7774490255566,367.8152777541818 M682.7774490255566,367.8152777541818 L684.0975560313652,349.33924693671 M684.0975560313652,349.33924693671 L679.506507056626,331.0329721845363 M679.506507056626,331.0329721845363 L669.1662421760569,313.5189207482836 M669.1662421760569,313.5189207482836 L653.4334962140945,297.3914864657545 M653.4334962140945,297.3914864657545 L632.847037406045,283.19703093216594 M632.847037406045,283.19703093216594 L608.1089781448603,271.4156094431615 M608.1089781448603,271.4156094431615 L580.0606103523863,262.44516213903 M580.0606103523863,262.44516213903 L549.6540330108303,256.58831463540025 M549.6540330108303,256.58831463540025 L517.92006333277,254.04249737801598 M517.92006333277,254.04249737801598 L485.9337709268159,254.89349627606236 M485.9337709268159,254.89349627606236 L454.77864653790766,259.1126336503383 M454.77864653790766,259.1126336503383 L425.5104323288987,266.5577326829545 M425.5104323288987,266.5577326829545 L399.1219301915105,276.97772569397483 M399.1219301915105,276.97772569397483 L376.50967114360026,290.02088811534384 M376.50967114360026,290.02088811534384 L358.4437075563251,305.24638920844126 M358.4437075563251,305.24638920844126 L345.54135715452344,322.13887333112183 M345.54135715452344,322.13887333112183 L338.24591394546894,340.1255652651769 M338.24591394546894,340.1255652651769 L336.81098923131094,358.59547285291507 M336.81098923131094,358.59547285291507 L341.2912730805192,376.9199294620637 M341.2912730805192,376.9199294620637 L351.5397888052422,394.4740146184683 M351.5397888052422,394.4740146184683 L367.21218559873705,410.65793375749166 M367.21218559873705,410.65793375749166 L387.7778272061448,424.91770784861643 M746.306673654823,353.96697914788643 L745.5708734488268,350.6305162419645 M745.5708734488268,350.6305162419645 L743.4723056964398,347.4883382282577 M743.4723056964398,347.4883382282577 L740.1331597864774,344.72295358781076 M740.1331597864774,344.72295358781076 L735.7475669747084,342.49492356341267 M735.7475669747084,342.49492356341267 L730.5703940212875,340.9335951565727 M730.5703940212875,340.9335951565727 L724.9023178018066,340.1296112919304 M724.9023178018066,340.1296112919304 L719.0725588214522,340.12960541854693 M719.0725588214522,340.12960541854693 L713.4196867057069,340.9335951565727 M713.4196867057069,340.9335951565727 L708.2719893254199,342.49490594176115 M708.2719893254199,342.49490594176115 L703.9284820156098,344.72294771345554 M703.9284820156098,344.72294771345554 L700.6416071715283,347.4883382282577 M700.6416071715283,347.4883382282577 L698.6024312057924,350.63052211756934 M698.6024312057924,350.63052211756934 L697.9296739288826,353.96697914788643 M697.9296739288826,353.96697914788643 L698.662656153858,357.3038194113689 M698.662656153858,357.3038194113689 L700.7590389591124,360.4471199340708 M700.7590389591124,360.4471199340708 L704.0971896974916,363.21408251148057 M704.0971896974916,363.21408251148057 L708.4831484976471,365.4437753612054 M708.4831484976471,365.4437753612054 L713.6620055345719,367.00647054764687 M713.6620055345719,367.00647054764687 L719.3326622378456,367.81123283647867 M719.3326622378456,367.81123283647867 L725.1653169574874,367.81123283647867 M725.1653169574874,367.81123283647867 L730.8207650941354,367.00647054764687 M730.8207650941354,367.00647054764687 L735.9701102690652,365.44376360372667 M735.9701102690652,365.44376360372667 L740.3139318640799,363.21407075494545 M740.3139318640799,363.21407075494545 L743.5997716851233,360.4471199340708 M743.5997716851233,360.4471199340708 L745.6367314628553,357.3038311654027 M745.6367314628553,357.3038311654027 L746.306673654823,353.96697914788643 M431.97268229667577,498.5273676819022 L436.583809865514,500.6111383625704 M436.583809865514,500.6111383625704 L441.9214055941611,501.99792127263737 M441.9214055941611,501.99792127263737 L447.6751274221816,502.60703268035394 M447.6751274221816,502.60703268035394 L453.5103223564005,502.40300156052115 M453.5103223564005,502.40300156052115 L459.0876576366833,501.39771699693614 M459.0876576366833,501.39771699693614 L464.0827584888805,499.6496758484923 M464.0827584888805,499.6496758484923 L468.2052333898696,497.2605977324941 M468.2052333898696,497.2605977324941 L471.21549366836075,494.36947503573055 M471.21549366836075,494.36947503573055 L472.9387121595254,491.14444193634444 M472.9387121595254,491.14444193634444 L473.27495268317296,487.7730335627395 M473.27495268317296,487.7730335627395 L472.2049026064104,484.45117786188496 M472.2049026064104,484.45117786188496 L469.7910129246992,481.37190026015395 M469.7910129246992,481.37190026015395 L466.1737169745635,478.7140257406198 M466.1737169745635,478.7140257406198 L461.56329054404785,476.6318962312821 M461.56329054404785,476.6318962312821 L456.22763175548914,475.24636738510765 M456.22763175548914,475.24636738510765 L450.4766532162279,474.63786019133096 M450.4766532162279,474.63786019133096 L444.6443459186553,474.8416820313023 M444.6443459186553,474.8416820313023 L439.06941464812564,475.8460169847992 M439.06941464812564,475.8460169847992 L434.0756640728789,477.59256414954524 M434.0756640728789,477.59256414954524 L429.9531815410887,479.9799550171023 M429.9531815410887,479.9799550171023 L426.94155747223544,482.8695837308403 M426.94155747223544,482.8695837308403 L425.2159263018948,486.0936495052202 M425.2159263018948,486.0936495052202 L424.87679630221794,489.464860409053 M424.87679630221794,489.464860409053 L425.9441085021475,492.787308512646 M425.9441085021475,492.787308512646 L428.35607266707063,495.86785789405684 M428.35607266707063,495.86785789405684 L431.97268229667577,498.5273676819022 M511.23716102626156,490.23953530834376 L517.0377036058084,489.8324057153546 M517.0377036058084,489.8324057153546 L522.4963288881654,488.6347133353483 M522.4963288881654,488.6347133353483 L527.2955697200404,486.716149738414 M527.2955697200404,486.716149738414 L531.1564576980674,484.18836470591464 M531.1564576980674,484.18836470591464 L533.8546358648166,481.1983969585602 M533.8546358648166,481.1983969585602 L535.2334200658023,477.920131046063 M535.2334200658023,477.920131046063 L535.2129242978882,474.5441622548346 M535.2129242978882,474.5441622548346 L533.7945789753738,471.2666858246128 M533.7945789753738,471.2666858246128 L531.0610514148498,468.27810572897425 M531.0610514148498,468.27810572897425 L527.1713137689427,465.75199452354406 M527.1713137689427,465.75199452354406 L522.351459664215,463.8350074829765 M522.351459664215,463.8350074829765 L516.8815285590192,462.638427307573 M516.8815285590192,462.638427307573 L511.0792410447416,462.2317071289681 M511.0792410447416,462.2317071289681 L505.28150973680226,462.6384332068994 M505.28150973680226,462.6384332068994 L499.8250731538777,463.83501338255644 M499.8250731538777,463.83501338255644 L495.02685838133937,465.75198862355757 M495.02685838133937,465.75198862355757 L491.16559896120293,468.27810572897425 M491.16559896120293,468.27810572897425 L488.4657753378418,471.2666858246128 M488.4657753378418,471.2666858246128 L487.08439200266673,474.5441622548346 M487.08439200266673,474.5441622548346 L487.10196903857616,477.92014285119575 M487.10196903857616,477.92014285119575 L488.5177343178118,481.19840286182176 M488.5177343178118,481.19840286182176 L491.2496218221427,484.18836470591464 M491.2496218221427,484.18836470591464 L495.13901708629567,486.716149738414 M495.13901708629567,486.716149738414 L499.9598844121531,488.63470743050965 M499.9598844121531,488.63470743050965 L505.4320065728018,489.8324057153546 M505.4320065728018,489.8324057153546 L511.23716102626156,490.23953530834376 M334.8100188477986,610.973774195766 L687.7833910006244,460.35716187759476 M509.77324227218537,193.6772132124536 L515.551409589435,194.08028348874365 M515.551409589435,194.08028348874365 L520.9985333133903,195.2661369483049 M520.9985333133903,195.2661369483049 L525.7982616782558,197.16593407658354 M525.7982616782558,197.16593407658354 L529.6717484498948,199.66939242964003 M529.6717484498948,199.66939242964003 L532.3938611620927,202.63115738141298 M532.3938611620927,202.63115738141298 L533.8062130512106,205.87924755477238 M533.8062130512106,205.87924755477238 L533.826539822748,209.22493853126264 M533.826539822748,209.22493853126264 L532.4534064677932,212.4737969070851 M532.4534064677932,212.4737969070851 L529.7663988805209,215.43694084094685 M529.7663988805209,215.43694084094685 L525.9215043715894,217.94206426846378 M525.9215043715894,217.94206426846378 L521.142200253807,219.84340706880334 M521.142200253807,219.84340706880334 L515.7062820787017,221.03036034229206 M515.7062820787017,221.03036034229206 L509.9298667706056,221.43384127718355 M509.9298667706056,221.43384127718355 L504.1489070494116,221.03036107380692 M504.1489070494116,221.03036107380692 L498.6995889407982,219.84341511512216 M498.6995889407982,219.84341511512216 L493.8988253824509,217.94206207416374 M493.8988253824509,217.94206207416374 L490.02567818663067,215.43695181145472 M490.02567818663067,215.43695181145472 L487.30522103580813,212.47380495126387 M487.30522103580813,212.47380495126387 L485.8954303336084,209.22494291848193 M485.8954303336084,209.22494291848193 L485.87799683282685,205.8792512103469 M485.87799683282685,205.8792512103469 L487.25369882128257,202.6311668847922 M487.25369882128257,202.6311668847922 L489.9423761593049,199.66937927252206 M489.9423761593049,199.66937927252206 L493.787611155696,197.16592092065474 M493.787611155696,197.16592092065474 L498.56589508306547,195.26613256329608 M498.56589508306547,195.26613256329608 L503.99963387950197,194.08029518159975 M503.99963387950197,194.08029518159975 L509.77324227218537,193.6772132124536 M274.6479821621936,329.25406963337963 L275.34631416595244,325.91836580728636 M275.34631416595244,325.91836580728636 L277.40988980842144,322.7768815786226 M277.40988980842144,322.7768815786226 L280.71858702861755,320.0121052462189 M280.71858702861755,320.0121052462189 L285.0800197480837,317.7845724696112 M285.0800197480837,317.7845724696112 L290.24076453591914,316.2236013492717 M290.24076453591914,316.2236013492717 L295.9010212868535,315.4197925317771 M295.9010212868535,315.4197925317771 L301.73206592262585,315.4197939997953 M301.73206592262585,315.4197939997953 L307.39526157001814,316.223604285393 M307.39526157001814,316.223604285393 L312.5617210843601,317.784571001468 M312.5617210843601,317.784571001468 L316.9313051929497,320.0121037779578 M316.9313051929497,320.0121037779578 L320.2501146893276,322.7768830470299 M320.2501146893276,322.7768830470299 L322.3251849337955,325.918363604426 M322.3251849337955,325.918363604426 L323.03573374248526,329.2540674302546 M323.03573374248526,329.2540674302546 L322.3402138085263,332.59017725892863 M322.3402138085263,332.59017725892863 L320.2788150534842,335.73277150839976 M320.2788150534842,335.73277150839976 L316.9711643697816,338.499109617374 M316.9711643697816,338.499109617374 L312.60937152225506,340.72830962538353 M312.60937152225506,340.72830962538353 L307.44699047203665,342.29065486545613 M307.44699047203665,342.29065486545613 L301.78415960292944,343.0952413756808 M301.78415960292944,343.0952413756808 L295.9501987764176,343.0952465188691 M295.9501987764176,343.0952465188691 L290.28442488769684,342.2906563348959 M290.28442488769684,342.2906563348959 L285.11632278946,340.7283059519907 M285.11632278946,340.7283059519907 L280.74638520714984,338.49911035199364 M280.74638520714984,338.49911035199364 L277.4285935914302,335.73277077385336 M277.4285935914302,335.73277077385336 L275.35569871928425,332.59018019678155 M275.35569871928425,332.59018019678155 L274.6479821621936,329.25406963337963 M260.39067378294266,374.87837171859445 L256.787866896469,372.2288915974836 M256.787866896469,372.2288915974836 L254.38912808838245,369.1599596611249 M254.38912808838245,369.1599596611249 L253.3336935130758,365.850039930142 M253.3336935130758,365.850039930142 L253.68267001427438,362.4915435993683 M253.68267001427438,362.4915435993683 L255.41553384738438,359.2796332665329 M255.41553384738438,359.2796332665329 L258.43136609406787,356.40089991926743 M258.43136609406787,356.40089991926743 L262.5547859651545,354.02251037630106 M262.5547859651545,354.02251037630106 L267.54614900956057,352.2825481234705 M267.54614900956057,352.2825481234705 L273.1155092158519,351.28200115258204 M273.1155092158519,351.28200115258204 L278.93937649463385,351.07894554371444 M278.93937649463385,351.07894554371444 L284.6795471480823,351.68515931096994 M284.6795471480823,351.68515931096994 L290.00265108999525,353.06546443310947 M290.00265108999525,353.06546443310947 L294.59950642772026,355.13974405973056 M294.59950642772026,355.13974405973056 L298.20300219916754,357.7875974317914 M298.20300219916754,357.7875974317914 L300.6036752538194,360.8552705662531 M300.6036752538194,360.8552705662531 L301.66183054462806,364.1645950124004 M301.66183054462806,364.1645950124004 L301.31574413435226,367.5232936363485 M301.31574413435226,367.5232936363485 L299.58527103194865,370.73615954408433 M299.58527103194865,370.73615954408433 L296.5707956653717,373.6163800305904 M296.5707956653717,373.6163800305904 L292.4473782183692,375.9964478469256 M292.4473782183692,375.9964478469256 L287.4546625866366,377.7378950329236 M287.4546625866366,377.7378950329236 L281.8829144035534,378.73939316852704 M281.8829144035534,378.73939316852704 L276.05615761803415,378.9426510698736 M276.05615761803415,378.9426510698736 L270.31326452982864,378.3358423391632 M270.31326452982864,378.3358423391632 L264.98822271259894,376.95428360746087 M264.98822271259894,376.95428360746087 L260.39067378294266,374.87837171859445 M387.82016010835184,400.18899701968087 L367.2499392833073,385.93239694535123 M367.2499392833073,385.93239694535123 L351.5740511147425,369.75208207752286 M351.5740511147425,369.75208207752286 L341.32324938903344,352.20190870328554 M341.32324938903344,352.20190870328554 L336.84196069448467,333.8815381731486 M336.84196069448467,333.8815381731486 L338.2771934522631,315.4157518121743 M338.2771934522631,315.4157518121743 L345.57424452507917,297.4330759031101 M345.57424452507917,297.4330759031101 L358.47944555428114,280.5443658466761 M358.47944555428114,280.5443658466761 L376.5494037200157,265.32226834084133 M376.5494037200157,265.32226834084133 L399.16666433448586,252.2820231281466 M399.16666433448586,252.2820231281466 L425.56100469803164,241.8643616092724 M425.56100469803164,241.8643616092724 L454.8356959055403,234.42092896218134 M454.8356959055403,234.42092896218134 L485.9977172239363,230.20273612509004 M485.9977172239363,230.20273612509004 L517.9910939253065,229.35192775717863 M517.9910939253065,229.35192775717863 L549.732096573391,231.89717504879553 M549.732096573391,231.89717504879553 L580.1454185379519,237.75271149910532 M580.1454185379519,237.75271149910532 L608.2000149874917,246.72115130291002 M608.2000149874917,246.72115130291002 L632.943576195052,258.4999371989551 M632.943576195052,258.4999371989551 L653.5346233780166,272.69121879833364 M653.5346233780166,272.69121879833364 L669.2708874342705,288.8150488784428 M669.2708874342705,288.8150488784428 L679.6134789924688,306.3251885806773 M679.6134789924688,306.3251885806773 L684.2055819546149,324.62737727618094 M684.2055819546149,324.62737727618094 L682.8852178749339,343.09928686091206 M682.8852178749339,343.09928686091206 L675.6915637234849,361.1115787071399 M675.6915637234849,361.1115787071399 L662.8643266178836,378.0493876679612 M662.8643266178836,378.0493876679612 L644.836375928324,393.33343948384294 M644.836375928324,393.33343948384294 L622.2194903951876,406.4401257252818 M622.2194903951876,406.4401257252818 L595.7838419896997,416.9197417248086 M595.7838419896997,416.9197417248086 L566.4317409964708,424.4122764383165 M566.4317409964708,424.4122764383165 L535.1666567454752,428.66008387266936 M535.1666567454752,428.66008387266936 L503.0584801854609,429.5170298409925 M503.0584801854609,429.5170298409925 L471.2064577652833,426.9535994962275 M471.2064577652833,426.9535994962275 L440.70089401595214,421.0580174354822 M440.70089401595214,421.0580174354822 L412.5852843562312,412.0330838701761 M412.5852843562312,412.0330838701761 L387.82016010835184,400.18899701968087 M746.4285133490739,329.2540769771295 L745.7584298028438,332.5901846035611 M745.7584298028438,332.5901846035611 L743.7210248403317,335.7327722429462 M743.7210248403317,335.7327722429462 L740.4344617808283,338.49910594427627 M740.4344617808283,338.49910594427627 L736.0896808916044,340.7283015439195 M736.0896808916044,340.7283015439195 L730.9391961258746,342.29066000849537 M730.9391961258746,342.29066000849537 L725.2824943968697,343.0952428451632 M725.2824943968697,343.0952428451632 L719.4485450354979,343.0952428451632 M719.4485450354979,343.0952428451632 L713.7766279876463,342.29066000849537 M713.7766279876463,342.29066000849537 L708.5966182531481,340.7283132987763 M708.5966182531481,340.7283132987763 L704.2096814519608,338.49911769818937 M704.2096814519608,338.49911769818937 L700.8707842572489,335.7327722429462 M700.8707842572489,335.7327722429462 L698.773929893464,332.59017285214924 M698.773929893464,332.59017285214924 L698.0407783274436,329.2540769771295 M698.0407783274436,329.2540769771295 L698.7136782112439,325.9183643387128 M698.7136782112439,325.9183643387128 L700.7533003409951,322.7768815786227 M700.7533003409951,322.7768815786227 L704.040898888498,320.01210818274103 M704.040898888498,320.01210818274103 L708.385365351979,317.784563660752 M708.385365351979,317.784563660752 L713.5342015968183,316.2236013492717 M713.5342015968183,316.2236013492717 L719.1883261654044,315.4197910637591 M719.1883261654044,315.4197910637591 L725.0193784999019,315.4197969358316 M725.0193784999019,315.4197969358316 L730.688713916935,316.22360134927175 M730.688713916935,316.22360134927175 L735.867038822053,317.7845812784705 M735.867038822053,317.7845812784705 L740.2536094689151,320.0121140557852 M740.2536094689151,320.0121140557852 L743.5935022781747,322.7768815786227 M743.5935022781747,322.7768815786227 L745.6925425520633,325.9183584644189 M745.6925425520633,325.9183584644189 L746.4285133490739,329.2540769771295 M432.02490400799184,473.78229825534936 L428.4074872747643,471.1233787483671 M428.4074872747643,471.1233787483671 L425.9949836903628,468.0435131686054 M425.9949836903628,468.0435131686054 L424.9274310301447,464.72180264684124 M424.9274310301447,464.72180264684124 L425.26663339858203,461.35134024028514 M425.26663339858203,461.35134024028514 L426.99264545415053,458.12799037803234 M426.99264545415053,458.12799037803234 L430.004936694075,455.23900338437033 M430.004936694075,455.23900338437033 L434.1283338587788,452.8521427517345 M434.1283338587788,452.8521427517345 L439.1231933718983,451.10598352059355 M439.1231933718983,451.10598352059355 L444.6993634925751,450.10187165557693 M444.6993634925751,450.10187165557693 L450.5329676429093,449.8980950906325 M450.5329676429093,449.8980950906325 L456.285225779318,450.5064671174455 M456.285225779318,450.5064671174455 L461.6220726481388,451.8916882088154 M461.6220726481388,451.8916882088154 L466.2335266714081,453.97335526267557 M466.2335266714081,453.97335526267557 L469.8516300300282,456.6306395000716 M469.8516300300282,456.6306395000716 L472.2660599878302,459.7092333016421 M472.2660599878302,459.7092333016421 L473.33635174020674,463.0303514191306 M473.33635174020674,463.0303514191306 L473.0000401359313,466.4010112968467 M473.0000401359313,466.4010112968467 L471.27644183287316,469.62532848250186 M471.27644183287316,469.62532848250186 L468.2655149916246,472.5158094597545 M468.2655149916246,472.5158094597545 L464.14212546281533,474.9043573414696 M464.14212546281533,474.9043573414696 L459.1459150734519,476.65201055687356 M459.1459150734519,476.65201055687356 L453.5673398754743,477.6570720343074 M453.5673398754743,477.6570720343074 L447.73084680158865,477.86105787787886 M447.73084680158865,477.86105787787886 L441.97584415748327,477.2520816382108 M441.97584415748327,477.2520816382108 L436.6370594843364,475.8656064805042 M436.6370594843364,475.8656064805042 L432.02490400799184,473.78229825534936 M511.30700763428047,465.49630556080587 L505.50056130185635,465.0892663539295 M505.50056130185635,465.0892663539295 L500.02722040802644,463.8918339756157 M500.02722040802644,463.8918339756157 L495.20527841001183,461.9737022552593 M495.20527841001183,461.9737022552593 L491.31501502098524,459.44647850435126 M491.31501502098524,459.44647850435126 L488.5825163845499,456.4571806317146 M488.5825163845499,456.4571806317146 L487.1664324174566,453.1796486960901 M487.1664324174566,453.1796486960901 L487.1488475624951,449.80441796740786 M487.1488475624951,449.80441796740786 L488.5305342909003,446.5276696123677 M488.5305342909003,446.5276696123677 L491.23095478518906,443.5397534898151 M491.23095478518906,443.5397534898151 L495.09306981184284,441.0141976676854 M495.09306981184284,441.0141976676854 L499.89234917739475,439.09764839747487 M499.89234917739475,439.09764839747487 L505.3499975158527,437.9013341286059 M505.3499975158527,437.9013341286059 L511.1490174006086,437.4946984368801 M511.1490174006086,437.4946984368801 L516.9525955248196,437.90132823059065 M516.9525955248196,437.90132823059065 L522.4237443871143,439.0976424992059 M522.4237443871143,439.0976424992059 L527.2446727044768,441.0142035663607 M527.2446727044768,441.0142035663607 L531.1352786254641,443.5397534898152 M531.1352786254641,443.5397534898152 L533.8694180481951,446.5276696123677 M533.8694180481951,446.5276696123677 L535.2880832053028,449.80441796740786 M535.2880832053028,449.80441796740786 L535.3085880906516,453.17963689357936 M535.3085880906516,453.17963689357936 L533.9295016513573,456.457174729764 M533.9295016513573,456.457174729764 L531.2307273519397,459.44647850435126 M531.2307273519397,459.44647850435126 L527.3689839324567,461.9737022552593 M527.3689839324567,461.9737022552593 L522.5686780531089,463.89183987914333 M522.5686780531089,463.89183987914333 L517.1088400452626,465.0892663539295 M517.1088400452626,465.0892663539295 L511.30700763428047,465.49630556080587 M509.7040761518299,218.3597886251501 L509.77324227218537,193.6772132124536 M274.6308116263745,353.9669718024978 L274.6479821621936,329.25406963337963 M260.376654863567,399.60144640064243 L260.39067378294266,374.87837171859445 M387.7778272061448,424.91770784861643 L387.82016010835184,400.18899701968087 M746.306673654823,353.96697914788643 L746.4285133490739,329.2540769771295 M431.97268229667577,498.5273676819022 L432.02490400799184,473.78229825534936 M511.23716102626156,490.23953530834376 L511.30700763428047,465.49630556080587" stroke="black"  stroke-width="4"  fill="red"/>
<path d="M138.7536074916942,474.8164641954906 L138.7080163920822,388.1211368823368 M299.7293282640567,567.8626454321354 L299.8093231437015,481.0949308096027 M138.7536074916942,474.8164641954906 L299.7293282640567,567.8626454321354 M138.7080163920822,388.1211368823368 L299.8093231437015,481.0949308096027 M364.0472168205847,530.6068703505017 L364.1773330180114,443.8681105961123 M299.7293282640567,567.8626454321354 L364.0472168205847,530.6068703505017 M299.8093231437015,481.0949308096027 L364.1773330180114,443.8681105961123 M203.07161678488427,437.68488002147154 L203.0761472857938,351.0185076531691 M364.0472168205847,530.6068703505017 L203.07161678488427,437.68488002147154 M364.1773330180114,443.8681105961123 L203.0761472857938,351.0185076531691 M203.07161678488427,437.68488002147154 L138.7536074916942,474.8164641954906 M203.0761472857938,351.0185076531691 L138.7080163920822,388.1211368823368" stroke="black"  stroke-width="4"  fill="red"/>
<path d="M207.954604793042,407.62605720476864 L207.9522290742908,432.33993988793753 M133.00300401505376,450.8753567015242 L133.01728050955933,475.598849270238 M207.954604793042,407.62605720476864 L133.00300401505376,450.8753567015242 M207.9522290742908,432.33993988793753 L133.01728050955933,475.598849270238 M186.53985378134615,481.8089307721571 L186.54223584309722,506.539287537703 M133.00300401505376,450.8753567015242 L186.53985378134615,481.8089307721571 M133.01728050955933,475.598849270238 L186.54223584309722,506.539287537703 M261.4914545655033,438.51154978268096 L261.47718441399206,463.2322966698108 M186.53985378134615,481.8089307721571 L261.4914545655033,438.51154978268096 M186.54223584309722,506.539287537703 L261.47718441399206,463.2322966698108 M261.4914545655033,438.51154978268096 L207.954604793042,407.62605720476864 M261.47718441399206,463.2322966698108 L207.9522290742908,432.33993988793753" stroke="black"  stroke-width="4"  fill="red"/></svg>